<mxfile host="app.diagrams.net" modified="2023-05-20T07:00:15.142Z" agent="Mozilla/5.0 (Windows NT 10.0; Win64; x64) AppleWebKit/537.36 (KHTML, like Gecko) Chrome/113.0.0.0 Safari/537.36" version="21.3.2" etag="3qCz3Jr6BZQ-LPXAfQyi" type="github">
  <diagram name="Page-1" id="dh6DTierGcxJUG0wGD7t">
    <mxGraphModel>
      <root>
        <mxCell id="0" />
        <mxCell id="1" parent="0" />
      </root>
    </mxGraphModel>
  </diagram>
</mxfile>
